<?xml version="1.0" standalone="no"?>
<!DOCTYPE svg PUBLIC "-//W3C//DTD SVG 20010904//EN"
 "http://www.w3.org/TR/2001/REC-SVG-20010904/DTD/svg10.dtd">
<svg version="1.0" xmlns="http://www.w3.org/2000/svg"
 width="260.000000pt" height="260.000000pt" viewBox="0 0 260.000000 260.000000"
 preserveAspectRatio="xMidYMid meet">
<metadata>
Created by potrace 1.14, written by Peter Selinger 2001-2017
</metadata>
<g transform="translate(0.000000,260.000000) scale(0.100000,-0.100000)"
fill="#000000" stroke="none">
<path d="M1285 2312 c-40 -5 -100 -26 -116 -39 -9 -7 -18 -11 -21 -8 -3 3 -11
-1 -18 -10 -7 -8 -16 -15 -21 -15 -20 0 -149 -126 -149 -145 0 -8 -11 -25 -23
-37 -23 -24 -64 -115 -59 -132 1 -4 -2 -14 -9 -22 -11 -14 -23 -99 -22 -164 2
-80 8 -145 15 -150 4 -3 9 -15 11 -25 6 -36 42 -125 49 -125 5 0 8 -5 8 -10 0
-11 34 -63 57 -88 7 -7 18 -21 25 -31 7 -10 48 -41 91 -69 62 -40 84 -49 100
-43 21 8 22 13 20 149 -1 138 -2 142 -30 179 -15 21 -36 46 -47 56 -22 20 -38
101 -22 117 7 7 7 10 -1 10 -13 0 -12 32 2 42 7 5 7 8 0 8 -12 0 -12 242 -1
278 15 47 21 7 22 -145 1 -121 4 -157 15 -164 28 -17 34 12 34 163 0 111 4
153 13 156 14 4 14 7 14 -159 0 -70 -2 -131 -6 -137 -9 -14 25 -25 38 -12 7 7
11 67 12 158 0 121 3 147 15 150 12 2 15 -21 14 -154 0 -85 3 -158 7 -160 5
-3 16 -3 26 0 15 5 17 21 15 161 -2 126 1 155 12 155 21 0 23 -21 21 -230 -1
-174 -4 -198 -21 -225 -23 -35 -36 -46 -47 -39 -4 3 -8 -3 -8 -13 0 -10 -6
-27 -14 -38 -10 -15 -13 -58 -12 -170 1 -82 6 -158 10 -167 4 -9 16 -15 27
-13 10 2 19 0 19 -4 0 -11 135 -4 159 8 12 7 21 9 21 6 0 -4 12 2 27 13 27 19
28 25 28 104 1 80 0 84 -29 111 -16 15 -31 33 -33 40 -1 6 -6 28 -11 47 -9 39
-8 217 2 295 8 64 17 126 20 145 1 8 8 25 14 38 7 12 10 22 6 22 -4 0 1 9 11
20 11 12 20 28 21 37 2 9 10 20 18 25 9 5 16 15 16 22 0 15 27 29 33 18 2 -4
3 -197 2 -430 -2 -330 1 -426 11 -440 12 -16 13 -16 19 1 4 9 14 17 23 17 13
0 140 121 142 135 0 3 10 20 21 39 11 20 20 38 20 41 -1 3 5 18 13 33 8 15 15
41 17 57 2 17 8 33 14 37 16 12 15 269 -1 295 -8 12 -14 33 -14 46 0 13 -7 32
-15 43 -8 10 -15 26 -15 35 0 8 -9 25 -21 37 -11 13 -21 31 -22 42 -1 10 -5
16 -9 14 -4 -3 -8 -2 -8 3 0 4 -20 29 -45 55 -25 27 -45 45 -45 43 0 -3 -11 6
-25 20 -14 14 -31 25 -38 25 -7 0 -23 9 -37 20 -14 11 -35 20 -47 20 -13 0
-23 4 -23 8 0 12 -206 23 -265 14z"/>
<path d="M397 1085 c-9 -8 -12 -58 -11 -166 2 -185 0 -169 24 -169 23 0 23 2
20 84 -1 38 3 62 11 67 18 10 69 -18 71 -39 2 -31 3 -37 9 -47 4 -5 9 -23 13
-38 10 -44 41 -32 41 16 1 21 -3 41 -7 43 -5 3 -6 10 -3 15 4 5 -4 23 -16 41
l-22 31 22 18 c17 14 24 31 25 65 2 40 -2 48 -28 67 -34 24 -130 32 -149 12z
m78 -25 c3 -5 12 -7 20 -3 10 3 15 -2 15 -16 0 -12 4 -21 10 -21 13 0 8 -32
-11 -60 -13 -19 -21 -22 -50 -16 -34 6 -34 6 -30 53 4 57 29 91 46 63z"/>
<path d="M1045 1053 c-5 -10 -7 -24 -6 -30 1 -7 -3 -13 -8 -13 -18 0 -23 -40
-7 -56 9 -8 14 -26 12 -38 -2 -13 -1 -29 4 -36 4 -7 4 -26 0 -41 -6 -19 -5
-29 2 -29 6 0 9 -3 5 -6 -12 -12 37 -54 64 -54 32 0 42 19 23 45 -8 10 -14 15
-14 11 0 -5 -6 -4 -13 2 -17 15 -17 147 1 148 6 1 16 2 21 3 5 0 11 10 14 20
5 20 -17 36 -34 25 -9 -5 -11 -1 -13 39 -1 28 -40 36 -51 10z"/>
<path d="M2290 1056 c0 -9 1 -18 3 -20 1 -3 -9 -16 -22 -30 -25 -26 -25 -27
-5 -41 18 -12 20 -24 19 -92 -2 -99 11 -123 66 -123 32 0 39 3 39 20 0 11 -3
20 -7 20 -5 0 -17 7 -28 16 -17 12 -20 27 -20 84 0 38 1 67 3 65 2 -2 17 1 33
7 25 8 27 13 18 30 -6 11 -13 17 -16 14 -11 -11 -42 14 -45 36 -3 26 -38 38
-38 14z"/>
<path d="M696 1008 c3 -4 -2 -8 -10 -8 -22 0 -66 -47 -67 -73 -5 -72 1 -106
23 -138 20 -30 29 -35 70 -38 67 -4 86 4 81 34 -4 16 -11 23 -24 22 -10 -1
-19 -4 -19 -8 0 -3 -11 -4 -25 -1 -27 5 -75 45 -75 62 0 11 4 12 80 15 87 3
88 4 85 23 -2 9 -4 24 -4 33 -1 25 -59 76 -91 81 -16 2 -27 1 -24 -4z m52 -63
c17 -20 19 -25 6 -25 -8 0 -12 -4 -9 -10 3 -5 1 -10 -4 -10 -6 0 -11 6 -11 13
0 8 -4 7 -10 -3 -9 -13 -10 -13 -10 0 0 10 -3 11 -8 4 -5 -8 -15 -8 -31 -2
-24 8 -24 9 -5 27 18 16 39 28 55 30 3 1 15 -10 27 -24z"/>
<path d="M1850 1009 c0 -5 -8 -9 -18 -9 -9 0 -23 -9 -29 -19 -11 -18 -9 -19
38 -17 27 2 49 -1 49 -6 0 -5 5 -6 10 -3 6 3 11 1 12 -4 5 -38 6 -37 -47 -40
-37 -2 -75 -45 -75 -85 0 -49 25 -76 72 -76 20 0 40 5 43 10 4 6 13 7 24 1 20
-11 47 2 36 18 -3 7 -7 52 -8 101 -2 67 -6 94 -18 106 -19 18 -89 36 -89 23z
m65 -149 c0 -8 4 -21 8 -27 12 -19 -53 -43 -75 -29 -24 15 -23 35 4 58 25 21
63 20 63 -2z"/>
<path d="M883 999 c-19 -7 -35 -34 -38 -64 -3 -22 18 -46 54 -65 32 -16 51
-37 51 -55 0 -9 -59 -22 -62 -14 -2 6 -15 8 -31 4 -24 -6 -26 -10 -15 -23 11
-13 11 -14 -2 -8 -12 7 -12 6 1 -8 10 -11 32 -17 59 -18 36 0 48 5 67 26 32
37 29 73 -7 107 -16 16 -35 29 -41 29 -6 0 -17 6 -24 14 -12 12 -11 16 4 30
20 18 41 21 41 6 0 -6 10 -5 25 2 28 12 33 28 10 28 -8 0 -15 4 -15 9 0 11
-47 11 -77 0z"/>
<path d="M1195 989 c-26 -16 -23 -25 8 -20 4 0 7 -4 7 -10 0 -5 4 -8 8 -5 22
13 62 13 73 0 17 -20 -6 -45 -37 -40 -13 3 -24 1 -24 -4 0 -5 -13 -17 -29 -26
-17 -10 -28 -21 -25 -26 3 -4 1 -8 -5 -8 -15 0 -1 -61 19 -82 14 -15 30 -18
84 -15 37 1 70 8 74 14 4 6 6 51 5 100 -2 84 -3 89 -33 116 -36 32 -81 35
-125 6z m101 -143 c2 -48 -57 -70 -71 -26 -9 29 16 61 45 57 19 -3 25 -10 26
-31z"/>
<path d="M1412 996 c-12 -6 -20 -15 -17 -18 3 -3 7 -43 8 -89 2 -55 7 -84 15
-87 7 -2 9 -8 6 -13 -3 -6 0 -16 6 -24 15 -19 97 -20 103 -2 3 9 7 9 19 -1 9
-7 22 -11 29 -10 19 4 29 31 15 40 -6 5 -7 8 -1 8 14 0 11 188 -3 202 -23 23
-41 -11 -40 -75 1 -83 1 -82 -24 -109 -18 -21 -25 -23 -44 -14 -25 12 -25 13
-28 118 -1 77 -10 92 -44 74z"/>
<path d="M1665 1000 c-9 -14 -10 -210 -1 -238 6 -17 10 -19 20 -9 9 8 13 35
12 78 -1 68 18 123 42 125 7 1 17 2 22 3 6 0 10 13 10 27 0 22 -3 24 -22 19
-13 -4 -27 -11 -32 -16 -6 -5 -17 -2 -27 7 -12 10 -19 12 -24 4z"/>
<path d="M2028 998 c-2 -7 -4 -65 -4 -128 1 -108 2 -115 21 -115 18 0 20 8 25
90 3 50 8 95 13 102 9 14 63 11 79 -5 7 -7 12 -47 13 -99 1 -80 3 -88 20 -88
18 0 20 8 20 107 0 58 -3 104 -7 101 -5 -2 -8 1 -8 7 0 5 -16 18 -35 27 -33
16 -37 16 -64 0 -26 -15 -31 -16 -44 -2 -19 18 -24 19 -29 3z"/>
<path d="M1486 651 c-3 -5 -15 -7 -26 -4 -27 7 -37 -22 -30 -94 5 -56 6 -57
37 -58 29 -1 78 26 67 37 -2 3 4 11 13 19 10 7 15 9 11 5 -4 -5 -3 -16 4 -23
9 -11 9 -17 -3 -24 -11 -7 -9 -9 8 -9 18 0 21 5 17 25 -2 14 0 25 6 25 6 0 9
4 5 9 -3 5 -2 12 3 15 7 4 12 -12 15 -56 1 -20 6 -22 24 -10 10 6 9 13 -1 33
-7 15 -10 34 -5 45 5 15 3 21 -7 21 -8 0 -14 -3 -14 -6 0 -4 -18 -7 -40 -7
-24 -1 -40 3 -40 10 0 6 -9 17 -20 24 -12 7 -18 17 -15 22 3 6 4 10 1 10 -3 0
-7 -4 -10 -9z m8 -54 c16 -15 11 -53 -8 -73 -12 -12 -16 -10 -24 14 -9 25 0
72 13 72 4 0 12 -6 19 -13z"/>
<path d="M864 642 c-5 -4 -9 -34 -9 -67 2 -80 3 -87 15 -80 5 3 7 12 3 20 -3
8 0 15 7 15 6 0 8 5 5 10 -3 6 1 10 9 10 9 0 16 7 16 16 0 8 -4 12 -10 9 -14
-9 -12 8 3 24 10 11 9 12 -2 6 -10 -6 -12 -4 -5 6 4 8 9 19 10 24 2 12 -27 17
-42 7z"/>
<path d="M1204 643 c11 -21 -16 -53 -41 -48 -21 3 -23 0 -21 -40 2 -54 13 -77
28 -55 8 13 11 13 19 1 5 -7 13 -11 19 -7 13 8 22 56 10 56 -5 0 -6 5 -2 11
11 18 7 70 -7 83 -9 8 -10 8 -5 -1z m-9 -96 c0 -9 -3 -17 -7 -17 -5 0 -12 0
-17 0 -5 0 -7 9 -4 20 6 24 28 21 28 -3z"/>
<path d="M1310 638 c0 -5 -5 -6 -11 -2 -8 4 -8 0 0 -15 10 -18 9 -20 -6 -14
-15 5 -16 3 -6 -7 9 -10 10 -17 2 -27 -7 -7 -8 -13 -3 -13 5 0 3 -4 -5 -9 -21
-13 -7 -57 18 -57 16 0 19 5 15 23 -4 14 -2 23 6 23 6 0 9 -4 6 -9 -10 -16 5
-40 24 -38 21 1 31 27 23 57 -6 23 -14 25 -30 9 -8 -8 -11 -6 -10 7 1 11 6 22
11 25 14 10 -2 56 -19 56 -8 0 -15 -4 -15 -9z"/>
<path d="M1616 641 c-4 -5 -2 -12 3 -15 5 -4 12 -2 15 3 4 5 2 12 -3 15 -5 4
-12 2 -15 -3z"/>
<path d="M1745 618 c-8 -18 -18 -23 -48 -22 -29 1 -37 -3 -35 -15 1 -9 -1 -22
-5 -28 -5 -7 -4 -13 1 -13 6 0 9 -7 8 -16 0 -9 4 -19 10 -21 6 -2 11 2 12 9 5
57 19 69 30 27 9 -36 38 -51 53 -27 6 8 12 9 17 3 11 -15 42 -21 93 -16 19 1
21 51 2 51 -7 0 -13 -7 -13 -15 0 -17 -30 -34 -48 -28 -9 4 -10 8 -2 18 8 9 8
15 0 20 -5 3 -10 11 -10 16 0 6 4 8 8 5 5 -3 9 1 9 9 0 20 -25 27 -35 9 -8
-14 -10 -14 -21 0 -11 13 -11 16 3 16 17 0 18 20 1 32 -15 12 -20 10 -30 -14z"/>
<path d="M947 583 c3 -7 0 -13 -6 -13 -15 0 -14 -45 2 -58 6 -5 22 -13 34 -16
18 -6 25 -2 35 18 l11 26 11 -23 c8 -15 19 -21 36 -19 14 1 31 3 38 4 11 1 18
30 12 53 -1 6 -3 15 -3 22 0 15 -14 21 -52 19 -18 -1 -29 -6 -27 -13 3 -18
-17 -16 -24 1 -4 9 -18 14 -39 13 -21 -1 -31 -6 -28 -14z m43 -32 c0 -25 -12
-32 -30 -20 -10 5 -11 9 -3 9 7 0 10 7 7 15 -4 9 0 15 10 15 9 0 16 -8 16 -19z
m99 2 c6 -13 5 -22 -5 -31 -8 -7 -15 -9 -15 -5 -9 53 1 71 20 36z"/>
<path d="M1849 593 c0 -5 -2 -16 -4 -25 -4 -24 22 -23 34 1 8 15 7 20 -5 25
-20 8 -24 8 -25 -1z"/>
</g>
</svg>
